<svg xmlns="http://www.w3.org/2000/svg" xmlns:xlink="http://www.w3.org/1999/xlink" width="500" zoomAndPan="magnify" viewBox="0 0 375 187.499995" height="250" preserveAspectRatio="xMidYMid meet" version="1.0"><defs><clipPath id="fd04f76b43"><path d="M 2 32.144531 L 373 32.144531 L 373 75.589844 L 2 75.589844 Z M 2 32.144531 " clip-rule="nonzero"/></clipPath><clipPath id="398210e0e0"><path d="M 2 72.960938 L 373 72.960938 L 373 155.394531 L 2 155.394531 Z M 2 72.960938 " clip-rule="nonzero"/></clipPath></defs><g clip-path="url(#fd04f76b43)"><path fill="#fec802" d="M 2.199219 76.933594 L 2.199219 -1.074219 L 372.792969 -1.074219 L 372.792969 76.933594 L 333.769531 76.933594 L 333.769531 154.976562 C 333.769531 176.523438 316.300781 193.996094 294.785156 193.996094 L 80.238281 193.996094 C 58.6875 193.996094 41.21875 176.523438 41.21875 154.976562 L 41.21875 76.933594 L 2.199219 76.933594 " fill-opacity="1" fill-rule="nonzero"/></g><g clip-path="url(#398210e0e0)"><path fill="#fec802" d="M 2.199219 38.335938 L 2.199219 -39.671875 L 372.792969 -39.671875 L 372.792969 38.335938 L 333.769531 38.335938 L 333.769531 116.375 C 333.769531 137.925781 316.300781 155.394531 294.785156 155.394531 L 80.238281 155.394531 C 58.6875 155.394531 41.21875 137.925781 41.21875 116.375 L 41.21875 38.335938 L 2.199219 38.335938 " fill-opacity="1" fill-rule="nonzero"/></g></svg>